<svg id="flexor" xmlns="http://www.w3.org/2000/svg" width="170" height="60" viewBox="0 0 170 60">
  <defs>
    <style>
      .cls-1, .cls-2 {
        fill-rule: evenodd;
      }

      .cls-2 {
        fill: #fe6c61;
      }
    </style>
  </defs>
  <path id="flexor." class="cls-1" d="M68.245,19.376a5.571,5.571,0,0,0-1.38,3.72v2.07h-1.65v2.76h1.65v7.86h-1.8V38.7h7.92v-2.91h-2.25v-7.86h3.33v-2.76h-3.33v-2.7q0-1.8,1.5-1.8a4.034,4.034,0,0,1,1.08.18l0.66,2.13,3-.33-0.6-3.66a5.628,5.628,0,0,0-2.04-.96,8.686,8.686,0,0,0-2.04-.27A5.024,5.024,0,0,0,68.245,19.376Zm16.53,16.41h-1.8V18.056h-5.82V21H79.1v14.79H77.3V38.7h7.47v-2.91Zm13.44-1.95a3.537,3.537,0,0,1-.675,1.35,2.493,2.493,0,0,1-2.115.75q-2.851,0-3.18-3.21h8.88a9.1,9.1,0,0,0,.21-1.95,5.618,5.618,0,0,0-1.785-4.26,6.479,6.479,0,0,0-4.575-1.62,6.22,6.22,0,0,0-5,2.085,7.723,7.723,0,0,0-1.785,5.205,6.4,6.4,0,0,0,1.965,5.1,7.332,7.332,0,0,0,5,1.71,6.775,6.775,0,0,0,4.53-1.38,4.625,4.625,0,0,0,1.77-3.18Zm-5.94-3.36a3.948,3.948,0,0,1,.84-2.04,2.3,2.3,0,0,1,1.86-.78,2.09,2.09,0,0,1,1.935.9,2.919,2.919,0,0,1,.435,1.92h-5.07Zm27.72,5.31h-1.32l-4.11-4.17,3.69-3.54h1.35v-2.91h-5.88v2.91h0.9l-1.95,2.01-1.83-2.01h0.93v-2.91h-6.84v2.91h1.35l4.08,3.96-3.72,3.75h-1.86V38.7h6.33v-2.91h-0.87l1.95-2.13,1.98,2.13h-0.99V38.7h6.81v-2.91Zm15.765-8.805a8.065,8.065,0,0,0-10.9.015,7.643,7.643,0,0,0-1.8,5.1,6.574,6.574,0,0,0,1.965,5.085A7.194,7.194,0,0,0,130.1,39a7.61,7.61,0,0,0,5.34-1.92,6.616,6.616,0,0,0,2.1-5.13A7.464,7.464,0,0,0,135.759,26.981Zm-3.12,7.92a2.962,2.962,0,0,1-2.415,1.125,2.668,2.668,0,0,1-2.385-1.2,5.2,5.2,0,0,1-.8-2.94A4.654,4.654,0,0,1,127.9,28.9a2.854,2.854,0,0,1,2.355-1.065,3.188,3.188,0,0,1,2.34.96,4.146,4.146,0,0,1,.96,3.03A4.741,4.741,0,0,1,132.639,34.9Zm15.059-9.12a4.734,4.734,0,0,0-1.065,1.965v-2.58h-5.52v2.94h1.95v7.68h-1.8V38.7h8.07v-2.91h-2.4v-5.64a2.072,2.072,0,0,1,.5-1.5,1.561,1.561,0,0,1,1.155-.51,2.119,2.119,0,0,1,1.05.36l0.51,2.31,2.94-.33-0.6-4.74a4.78,4.78,0,0,0-1.4-.585,5.664,5.664,0,0,0-1.275-.165A2.739,2.739,0,0,0,147.7,25.781ZM160.613,38.7v-4.89h-4.59V38.7h4.59Z" transform="translate(0.109)"/>
  <path class="cls-2" d="M37.294,54.246h0m0.084,0h0m-0.127,0h0m0.149,0h0m-0.193,0h0m0.215,0h0m-0.26,0h0m0.288,0h0m-0.332,0h0m0.352,0h0m0.022,0h0m0.021,0h0m0.023,0h0m0.027,0h0m0.022,0h0m0.021,0h0m0.023,0h0m0.024,0h0m0.025,0h0m0.02,0h0m0.023,0h0m0.023,0h0m0.048,0h0m0.022,0h0m0.022,0h0m0.023,0h0m0.068,0-0.067,0,0.067,0m0.022,0h0m0.023,0h0m0.067,0-0.067,0,0.067,0m0.022,0h0m-1.473-3.915h0m0.057,0h0m-0.087,0h0m-0.033,0h0m0.153,0h0m-0.187,0h0m0.217,0h0m-0.246,0h0m-0.03,0h0m0.306,0h0m-0.338,0h0m-0.035,0h0m0.4,0h0m-0.434,0h0m0.46,0h0m-0.49,0h0m-0.031,0h0m0.555,0h0m-0.592,0h0m-0.03,0h0m-0.028,0h0m-0.029,0h0m-0.039,0h0m-0.028,0h0m-0.028,0h0m-0.024,0h0m-0.046,0h0m-0.028,0h0m-0.025,0h0m-0.1,0h0m-0.025,0h0M27.438,9.693h0m-0.146,0h0m-0.049,0h0m-0.05,0h0m-0.048,0h0m-0.335,0h0m0.287,0h0m-0.264,0h0m0.215,0h0m-0.187,0h0m0.022,0h0m0.118,0h0m-0.091,0h0m0.043,0h0M24.688,5.8C12.6,6.713,9.16,22.9,9.16,35.589c0,12.993,15.037,18.593,27.957,18.656a45.088,45.088,0,0,1-11.069-1.421A30.324,30.324,0,0,1,14.567,40.779a12.236,12.236,0,0,1-1.558-6.1c0-8.842,1.993-19.705,8.485-23.557a25.9,25.9,0,0,0-11.163,12.1c1.83-8.96,6.052-16.8,14.356-17.424m0.127-.009L24.688,5.8l0.126-.009m0.051,0-0.05,0,0.05,0m0.025,0h0m0.052,0-0.05,0,0.05,0m0.026,0h0m0.025,0h0m0.024,0h0m0.051,0-0.048,0,0.048,0m0.026,0h0m0.027,0h0m0.024,0h0m0.028,0h0m0.024,0h0m0.025,0h0m0.028,0h0m0.024,0h0m1.273,0A44.743,44.743,0,0,1,36.715,7.21a44.562,44.562,0,0,1,13.6,12.055,11.807,11.807,0,0,1,2.478,7.193c0,8.714-3.364,18.67-10.215,22.37a57.824,57.824,0,0,0,11.056-7.515h0C50.667,48.405,45.5,53.892,38.063,54.229,50.542,53.665,56.64,38.592,56.64,25.772S39.443,6.034,26.548,5.766m-0.042,0h0m-1.179,0-0.047,0,0.047,0m0.026,0h0m0.028,0h0m1,0,0.122,0-0.122,0m-0.979,0h0m0.938,0h0m-0.911,0h0m0.871,0h0m-0.845,0h0m0.8,0h0m-0.78,0h0m0.74,0h0m-0.71,0h0m0.669,0h0m-0.645,0h0m0.6,0h0m-0.578,0h0m0.026,0h0m0.47,0h0m-0.446,0h0m0.405,0h0m-0.376,0h0m0.336,0h0m-0.312,0h0m0.272,0h0m-0.247,0h0m0.207,0h0m-0.178,0h0m0.137,0h0m-0.113,0h0m0.072,0h0m-0.041,0h0m0,0h0M24.688,5.8h0m0.128-.009h0m0.051,0h0m0.025,0h0m0.052,0h0m0.025,0h0m0.027,0h0m0.026,0h0m0.053,0h0m0.024,0h0m0.027,0h0m0.026,0h0m0.024,0h0m0.029,0h0m0.024,0h0m0.027,0h0m0.026,0h0m1.266,0h0m-0.04,0h0m-1.174,0h0m0.024,0h0m0.026,0h0m1,0h0m-0.973,0h0m0.932,0h0m-0.908,0h0m0.867,0h0m-0.838,0h0m0.8,0h0m-0.773,0h0m0.732,0h0m-0.706,0h0m0.666,0h0m-0.638,0h0m0.6,0h0m-0.574,0h0m0.029,0h0m0.463,0h0m-0.437,0h0m0.4,0h0m-0.372,0h0m0.331,0h0m-0.3,0h0m0.262,0h0m-0.237,0h0m0.2,0h0m-0.04,0h0m-0.128,0h0m0.089,0h0m-0.063,0h0m0.024,0H25.328l-0.047,0H25.069l-0.048,0H24.942l-0.05,0H24.866l-0.05,0h0L24.688,5.8h0c-8.3.628-12.526,8.464-14.356,17.424a25.9,25.9,0,0,1,11.163-12.1A10.428,10.428,0,0,1,26.809,9.69h0.484l0.145,0h0C35.53,9.826,45.7,13.108,50.312,19.265A44.562,44.562,0,0,0,36.715,7.21,44.743,44.743,0,0,0,26.548,5.766H26.507l-0.122,0H25.776M51.021,20.311l0-.007,0,0.007h0m-34.745,13.6h0c0-9.15,2.554-20.889,11.635-20.889S49.524,17.89,49.524,27.04h0c0,9.15-4.436,19.938-13.518,19.938s-19.73-3.914-19.73-13.064h0M26.931,9.689H26.809a10.424,10.424,0,0,0-5.3,1.428l-0.018.008C15,14.978,13.01,25.841,13.01,34.683a12.236,12.236,0,0,0,1.558,6.1l-0.011-.025c3.6,6.425,12.868,9.373,21.252,9.551h0.026l0.1,0h0.9A12.4,12.4,0,0,0,41.59,49.3h0q0.5-.215.976-0.471l0.009,0c6.852-3.7,10.215-13.656,10.215-22.37a11.807,11.807,0,0,0-2.478-7.193l0.033,0.046c-4.6-6.185-14.8-9.485-22.907-9.618h0l-0.145,0H26.931M51.017,20.3l0,0.007h0l0-.007M27.438,9.693c8.111,0.133,18.31,3.432,22.907,9.618l-0.033-.046C45.7,13.108,35.53,9.826,27.438,9.693m-0.145,0,0.145,0-0.145,0m-0.048,0h0m-0.047,0h0m-0.048,0h0m-0.341,0a10.428,10.428,0,0,0-5.314,1.436l0.018-.008a10.424,10.424,0,0,1,5.3-1.428m0.292,0h0m-0.267,0h0m0.221,0h0m-0.2,0h0m0.026,0h0m0.124,0h0m-0.1,0h0m0.053,0h0m-0.026,0h0M37.289,54.246h0m0.075,0h0m0.022,0h0m-0.14,0h0m0.161,0h0m-0.2,0h0m0.225,0h0m-0.269,0h0m0.293,0h0m-0.337,0h0m0.361,0h0m0.022,0h0m0.022,0h0m0.021,0h0m0.024,0h0m0.024,0h0m0.023,0h0m0.021,0h0m0.022,0h0m0.023,0h0m0.026,0h0m0.021,0h0m0.022,0h0m0.045,0h0m0.024,0h0m0.022,0h0m0.021,0h0m0.068,0h0m0.022,0h0m0.022,0h0m0.069,0h0m0.022,0h0m-23.5-13.45A30.324,30.324,0,0,0,26.048,52.824a45.088,45.088,0,0,0,11.069,1.421H37.86l0.067,0h0.046l0.067,0h0.024c7.434-.337,12.6-5.824,15.568-12.916a57.824,57.824,0,0,1-11.056,7.515,12.344,12.344,0,0,1-5.746,1.484h-0.9l-0.1,0H35.808c-8.374-.178-17.633-3.117-21.24-9.526m22.049,9.535h0m-0.038,0h0m0.074,0h0m-0.1,0h0m-0.029,0h0m0.163,0h0m-0.2,0h0m-0.032,0h0m0.266,0h0m-0.3,0h0m-0.03,0h0m0.36,0h0m-0.4,0h0m0.429,0h0m-0.459,0h0m-0.03,0h0m0.532,0h0m-0.561,0h0m-0.038,0h0m-0.03,0h0m-0.031,0h0m-0.042,0h0m-0.03,0h0m-0.028,0h0m-0.029,0h0m-0.048,0h0m-0.024,0h0m-0.028,0h0m-0.1,0,0.1,0-0.1,0m-0.026,0h0m6.767-1.477-0.009,0q-0.476.257-.976,0.471h0a12.4,12.4,0,0,1-4.761,1.008,12.344,12.344,0,0,0,5.746-1.484M14.556,40.755l0.011,0.025c3.607,6.409,12.866,9.348,21.24,9.526-8.384-.178-17.654-3.126-21.252-9.551m16.151-6.986v0.01h0v-0.01m0-.01s0,0,0,.007,0,0,0-.007m0-.01s0,0,0,.007,0,0,0-.007m0-.011s0,0.005,0,.007,0,0,0-.007m0-.013v0m0-.01v0m0-.01v0m0-.01V33.7s0,0,0-.006m0-.01v0m0-.013v0m0-.01v0m0-.01s0,0,0,0,0,0,0,0m0-.009v0m0-.034h0m0-6.533h0m0-.01a0.012,0.012,0,0,1,0,0,0.012,0.012,0,0,0,0,0m0-.01v0m0-.015h0m0-.01v0m0-.01s0,0,0,.005,0,0,0-.005m0-.012s0,0,0,.007,0,0,0-.007m0-.012s0,0.007,0,.01,0-.007,0-0.01m0-.01s0,0,0,.007,0,0,0-.007m0-.011s0,0,0,.007,0,0,0-.007m0-.013v0m0-2.17V24.8h0v-0.01m0-.01s0,0,0,.007,0,0,0-.007m0-.01s0,0,0,.006,0,0,0-.006m0-.01s0,0,0,.006,0,0,0-.006m0-.011s0,0,0,.006,0,0,0-.006m0-.014s0,0.006,0,.01,0-.006,0-0.01m0-.01v0m0-.01s0,0,0,0,0,0,0,0m0-.01s0,0,0,0,0,0,0,0m0-.009v0m8.542-5.281H28.231a1.7,1.7,0,0,0-1.691,1.7V39.316a1.7,1.7,0,0,0,1.691,1.7h0.785a1.7,1.7,0,0,0,1.691-1.7h0a1.7,1.7,0,0,1-1.691,1.7H28.231a1.7,1.7,0,0,1-1.691-1.7v-7.17h5.374a1.678,1.678,0,0,1,.485-0.071h5.133a1.7,1.7,0,0,0,0-3.408H32.4a1.675,1.675,0,0,1-.559-0.1h-5.3V23.152h5.444A1.683,1.683,0,0,1,32.4,23.1h6.854a1.7,1.7,0,0,0,1.691-1.7V21.122a1.7,1.7,0,0,0-1.691-1.7m-8.542,7.658a1.7,1.7,0,0,0,1.128,1.5h0.006a1.7,1.7,0,0,1-1.134-1.5m0-.008s0,0.005,0,.008,0-.005,0-0.008m0-.009v0m0-.017s0,0.009,0,.014,0-.009,0-0.014m0-.007v0m0-.009v0m0-.01s0,0,0,0,0,0,0,0m0-.01v0m0-.013s0,0,0,0,0,0,0,0m0-.01v0m0-.01v0m0-2.183v0m0-.011v0m0-.011v0m0-.01v0m0-.01s0,0,0,0,0,0,0,0m0-.015v0m0-.011v0m0-.01a0.057,0.057,0,0,0,0,.006s0,0,0-.006m0-.01v0m1.282-1.551H31.984A1.7,1.7,0,0,0,30.71,24.7a1.7,1.7,0,0,1,1.282-1.548m-0.008,0H26.54v5.421h5.3a1.7,1.7,0,0,1-1.128-1.5h0s0-.005,0-0.008a0.012,0.012,0,0,0,0,0v-0.01s0-.009,0-0.014h0V27.027s0,0,0-.005,0,0,0,0,0,0,0-.007v0s0-.006,0-0.01,0,0,0,0,0,0,0-.007v0s0,0,0-.007V26.964h0V24.8h0V24.79s0,0,0-.007v0s0,0,0-.006v0s0,0,0-.006v0s0,0,0-.006,0,0,0,0,0-.006,0-0.01V24.723s0,0,0,0a0.057,0.057,0,0,1,0-.006s0,0,0,0V24.7a1.7,1.7,0,0,1,1.274-1.548M30.707,33.766v0m0-.011v0m0-.011v0m0-.01v0m0-.013v0m0-.011s0,0,0,0,0,0,0,0m0-.01s0,0,0,0,0,0,0,0m0-.01s0,0,0,0,0,0,0,0m0-.015v0m0-.01v0m0-.01s0,0,0,.006,0,0,0-.006m0-.01v0m0-.036,0,0.033,0-.033m1.2-1.464h0a1.7,1.7,0,0,0-1.2,1.463,1.7,1.7,0,0,1,1.2-1.463m0,0H26.54v7.17a1.7,1.7,0,0,0,1.691,1.7h0.785a1.7,1.7,0,0,0,1.691-1.7V33.779h0V33.766s0,0,0-.007v0s0,0,0-.007v0s0,0,0-.007V33.715s0,0,0,0V33.7s0,0,0,0V33.694s0,0,0,0V33.661s0,0,0-.006,0,0,0,0V33.643l0-.033h0a1.7,1.7,0,0,1,1.2-1.463" transform="translate(0.109)"/>
</svg>
