<svg id="realvilla" xmlns="http://www.w3.org/2000/svg" width="170" height="60" viewBox="0 0 170 60">
  <defs>
    <style>
      .cls-1 {
        fill: #26ae61;
      }

      .cls-1, .cls-2 {
        fill-rule: evenodd;
      }

      .cls-2 {
        fill: #101010;
      }
    </style>
  </defs>
  <path class="cls-1" d="M25.975,28.029h3.052V25.107H25.975v2.922Zm9.391-6.593L27.5,15.029l-7.865,6.407L8,10v29.09L27.5,50,47,39.089V10Zm8.581,15.976L27.5,46.622,11.055,37.413V17.187l6.378,6.27-3.175,2.589,1.979,2.223L27.5,19.082l11.264,9.187,1.979-2.223-3.175-2.589,6.378-6.27V37.413Z" transform="translate(-1.484)"/>
  <path id="Realvilla-2" data-name="Realvilla" class="cls-2" d="M63.494,38.231H65.7a0.186,0.186,0,0,0,.23-0.184,0.325,0.325,0,0,0-.023-0.138l-2.714-6.762a0.109,0.109,0,0,1,.069-0.161,3.769,3.769,0,0,0,1.886-1.564,4.8,4.8,0,0,0,.69-2.6,5.265,5.265,0,0,0-.552-2.45,3.978,3.978,0,0,0-1.564-1.656,4.549,4.549,0,0,0-2.323-.586H56.088a0.275,0.275,0,0,0-.276.276V37.955a0.275,0.275,0,0,0,.276.276H58.2a0.275,0.275,0,0,0,.276-0.276V31.423a0.1,0.1,0,0,1,.115-0.115h1.978a0.135,0.135,0,0,1,.115.092L63.172,38a0.3,0.3,0,0,0,.322.23h0Zm-4.9-13.8H61.01a2.018,2.018,0,0,1,1.564.656,2.511,2.511,0,0,1,.6,1.76,2.477,2.477,0,0,1-.6,1.736,2.018,2.018,0,0,1-1.564.656H58.595a0.1,0.1,0,0,1-.115-0.115V24.546a0.1,0.1,0,0,1,.115-0.115h0Zm20.171-.276V22.407a0.275,0.275,0,0,0-.276-0.276h-8.9a0.275,0.275,0,0,0-.276.276V37.955a0.275,0.275,0,0,0,.276.276h8.9a0.275,0.275,0,0,0,.276-0.276V36.207a0.275,0.275,0,0,0-.276-0.276H72.1a0.1,0.1,0,0,1-.115-0.115V31.4a0.1,0.1,0,0,1,.115-0.115H76.19a0.275,0.275,0,0,0,.276-0.276V29.261a0.275,0.275,0,0,0-.276-0.276H72.1a0.1,0.1,0,0,1-.115-0.115V24.546a0.1,0.1,0,0,1,.115-0.115H78.49a0.275,0.275,0,0,0,.276-0.276h0ZM90.725,38.231h2.208a0.206,0.206,0,0,0,.253-0.207l-0.023-.092L88.977,22.361a0.3,0.3,0,0,0-.322-0.23H86.033a0.3,0.3,0,0,0-.322.23L81.525,37.932a0.209,0.209,0,0,0,.23.3H83.94A0.3,0.3,0,0,0,84.262,38l0.575-2.461a0.109,0.109,0,0,1,.115-0.092H89.69a0.109,0.109,0,0,1,.115.092L90.4,38a0.3,0.3,0,0,0,.322.23h0Zm-5.336-5.014,1.84-7.544a0.069,0.069,0,1,1,.138,0l1.886,7.544a0.084,0.084,0,0,1-.023.1,0.154,0.154,0,0,1-.092.035H85.5a0.152,0.152,0,0,1-.092-0.035,0.084,0.084,0,0,1-.023-0.1h0Zm11.2,5.014h8.832a0.276,0.276,0,0,0,.276-0.276V36.207a0.276,0.276,0,0,0-.276-0.276H99.1a0.1,0.1,0,0,1-.115-0.115V22.407a0.275,0.275,0,0,0-.276-0.276H96.59a0.275,0.275,0,0,0-.276.276V37.955a0.275,0.275,0,0,0,.276.276h0Zm15.364,0h2.3a0.3,0.3,0,0,0,.322-0.23l4.071-15.571a0.209,0.209,0,0,0-.23-0.3h-2.231a0.294,0.294,0,0,0-.3.253L113.242,33.93a0.1,0.1,0,0,1-.069.092,0.093,0.093,0,0,1-.069-0.092L110.39,22.361a0.289,0.289,0,0,0-.3-0.23h-2.277a0.206,0.206,0,0,0-.253.207V22.43L111.632,38a0.3,0.3,0,0,0,.322.23h0Zm10.257,0h2.116a0.274,0.274,0,0,0,.276-0.276V22.407a0.274,0.274,0,0,0-.276-0.276h-2.116a0.276,0.276,0,0,0-.276.276V37.955a0.276,0.276,0,0,0,.276.276h0Zm6.739,0h8.832a0.274,0.274,0,0,0,.276-0.276V36.207a0.274,0.274,0,0,0-.276-0.276h-6.325a0.1,0.1,0,0,1-.115-0.115V22.407a0.274,0.274,0,0,0-.276-0.276H128.95a0.276,0.276,0,0,0-.276.276V37.955a0.276,0.276,0,0,0,.276.276h0Zm12.489,0h8.832a0.274,0.274,0,0,0,.276-0.276V36.207a0.274,0.274,0,0,0-.276-0.276h-6.325a0.1,0.1,0,0,1-.115-0.115V22.407a0.274,0.274,0,0,0-.276-0.276h-2.116a0.276,0.276,0,0,0-.276.276V37.955a0.276,0.276,0,0,0,.276.276h0Zm21.068,0h2.208a0.206,0.206,0,0,0,.253-0.207l-0.023-.092-4.186-15.571a0.3,0.3,0,0,0-.322-0.23h-2.622a0.3,0.3,0,0,0-.322.23l-4.186,15.571a0.209,0.209,0,0,0,.23.3h2.185a0.3,0.3,0,0,0,.322-0.23l0.575-2.461a0.108,0.108,0,0,1,.115-0.092h4.738a0.11,0.11,0,0,1,.115.092l0.6,2.461a0.3,0.3,0,0,0,.322.23h0Zm-5.336-5.014,1.84-7.544a0.079,0.079,0,0,1,.069-0.069,0.081,0.081,0,0,1,.069.069l1.886,7.544a0.085,0.085,0,0,1-.023.1,0.155,0.155,0,0,1-.092.035h-3.634a0.151,0.151,0,0,1-.092-0.035,0.083,0.083,0,0,1-.023-0.1h0Z" transform="translate(-1.484)"/>
</svg>
