<?xml version="1.0" encoding="utf-8"?>
<!-- Generator: Adobe Illustrator 24.1.2, SVG Export Plug-In . SVG Version: 6.00 Build 0)  -->
<svg version="1.1" id="Layer_1" xmlns="http://www.w3.org/2000/svg" xmlns:xlink="http://www.w3.org/1999/xlink" x="0px" y="0px"
	 viewBox="0 0 510 120" style="enable-background:new 0 0 510 120;" xml:space="preserve">
<style type="text/css">
	.st0{fill:#FFFFFF;}
	.st1{fill:#AB1E23;}
	.st2{clip-path:url(#SVGID_2_);fill:#EC2024;}
	.st3{clip-path:url(#SVGID_4_);fill:#EC2024;}
	.st4{clip-path:url(#SVGID_6_);fill:#EC2024;}
	.st5{fill:#231F20;}
</style>
<g>
	<g>
		<g>
			<path class="st1" d="M116.23,37.24c0,0-11.22-9.5-15.21-11.89c-1.37-0.82-1.02-1.15-6.81-1.15H80.27L59.93,61.14h62.85
				c0,0,7.45-0.1,12.1,8.74c4.64,8.84,14.56,26.36,14.56,26.36l-19.5-11.19c-0.36-0.21-0.76-0.31-1.18-0.31l-81.13,0.29
				l-18.96,34.85H0L60.38,9.55c0,0,3.95-9.23,12.19-9.38s12.26,0,16.81,0c5.18,0,8.72,1.63,13.85,10.57
				C108.37,19.67,116.23,37.24,116.23,37.24z"/>
		</g>
		<g>
			<defs>
				<path id="SVGID_5_" d="M116.23,37.24c0,0-11.22-9.5-15.21-11.89c-1.37-0.82-1.02-1.15-6.81-1.15H80.27L59.93,61.14h62.85
					c0,0,7.45-0.1,12.1,8.74c4.64,8.84,14.56,26.36,14.56,26.36l-19.5-11.19c-0.36-0.21-0.76-0.31-1.18-0.31l-81.13,0.29
					l-18.96,34.85H0L60.38,9.55c0,0,3.95-9.23,12.19-9.38s12.26,0,16.81,0c5.18,0,8.72,1.63,13.85,10.57
					C108.37,19.67,116.23,37.24,116.23,37.24z"/>
			</defs>
			<clipPath id="SVGID_2_">
				<use xlink:href="#SVGID_5_"  style="overflow:visible;"/>
			</clipPath>
			<path class="st2" d="M82.8-9.24l66.64,134.43c0,0,41.37-20.5,42.16-24.44S118.67-48.27,118.67-48.27L82.8-9.24z"/>
		</g>
	</g>
	<g>
		<g>
			<path class="st5" d="M156.23,38.17v3.39h-8.14v4.13h8.14v3.39h-8.14v7.59h-4.61V38.17H156.23z"/>
			<path class="st5" d="M172.07,38.17l8.22,18.51h-4.96l-1.53-3.66h-8.29l-1.38,3.66h-4.89l7.48-18.51H172.07z M172.45,49.79l-3-7.2
				l-2.72,7.2H172.45z"/>
			<path class="st5" d="M183.78,38.17h8.27c1.79,0,3.25,0.52,4.37,1.56c1.12,1.04,1.68,2.29,1.68,3.77c0,2.04-1.06,3.55-3.18,4.53
				c0.93,0.42,1.81,1.56,2.65,3.42c0.84,1.85,1.65,3.6,2.43,5.25h-5.06c-0.3-0.61-0.83-1.77-1.58-3.49
				c-0.75-1.71-1.39-2.81-1.93-3.3c-0.53-0.49-1.11-0.73-1.72-0.73h-1.33v7.51h-4.61V38.17z M188.39,41.56v4.21h2.44
				c0.78,0,1.39-0.18,1.85-0.55s0.68-0.89,0.68-1.57c0-1.4-0.88-2.09-2.64-2.09H188.39z"/>
			<path class="st5" d="M221.98,38.17v18.51h-4.61v-7.49h-9.22v7.49h-4.61V38.17h4.61v7.44h9.22v-7.44H221.98z"/>
			<path class="st5" d="M238.31,38.17l8.22,18.51h-4.96l-1.53-3.66h-8.29l-1.38,3.66h-4.89l7.48-18.51H238.31z M238.7,49.79l-3-7.2
				l-2.72,7.2H238.7z"/>
			<path class="st5" d="M268.77,38.17v18.51h-3.89l-10.22-11.86v11.86h-4.61V38.17h4.23l9.88,11.32V38.17H268.77z"/>
			<path class="st5" d="M296.87,47.07h3.96c-1.05,2.44-2.29,4.29-3.72,5.54l3.72,4.07h-5.62l-1.35-1.47
				c-1.79,1.14-3.73,1.71-5.82,1.71c-1.68,0-3.07-0.47-4.19-1.4s-1.67-2.09-1.67-3.48c0-2.08,1.38-3.83,4.15-5.23
				c-1.12-1.54-1.68-2.91-1.68-4.11c0-1.37,0.53-2.51,1.6-3.41s2.43-1.36,4.07-1.36c1.57,0,2.86,0.41,3.86,1.24
				c1,0.83,1.5,1.88,1.5,3.16c0,1.8-1.15,3.38-3.45,4.74l2.52,2.9C295.54,49.18,296.25,48.21,296.87,47.07z M291.71,52.83
				l-3.29-3.63c-1.26,0.81-1.9,1.64-1.9,2.49c0,0.59,0.23,1.1,0.69,1.53c0.46,0.43,1.01,0.64,1.64,0.64
				C289.75,53.86,290.7,53.51,291.71,52.83z M290.21,44.87c1.23-0.72,1.84-1.49,1.84-2.33c0-0.45-0.16-0.82-0.48-1.11
				c-0.32-0.29-0.73-0.44-1.23-0.44c-0.49,0-0.9,0.13-1.23,0.4s-0.48,0.61-0.48,1.01C288.64,43.12,289.16,43.94,290.21,44.87z"/>
			<path class="st5" d="M324.64,38.17l8.22,18.51h-4.96l-1.53-3.66h-8.29l-1.38,3.66h-4.89l7.48-18.51H324.64z M325.03,49.79l-3-7.2
				l-2.72,7.2H325.03z"/>
			<path class="st5" d="M348.91,39.36v3.62c-2.46-1.1-4.41-1.66-5.87-1.66c-0.83,0-1.49,0.14-1.98,0.42
				c-0.49,0.28-0.74,0.65-0.74,1.11c0,0.35,0.18,0.69,0.53,1.01c0.35,0.32,1.21,0.73,2.58,1.23c1.37,0.5,2.46,0.97,3.29,1.4
				c0.82,0.43,1.53,1.04,2.13,1.83c0.6,0.79,0.89,1.78,0.89,2.98c0,1.71-0.65,3.08-1.95,4.1c-1.3,1.02-3.02,1.52-5.15,1.52
				c-2.3,0-4.52-0.6-6.68-1.79v-3.99c1.24,0.83,2.33,1.44,3.29,1.82s1.97,0.57,3.04,0.57c1.81,0,2.72-0.57,2.72-1.71
				c0-0.39-0.18-0.75-0.54-1.1c-0.36-0.34-1.23-0.76-2.62-1.26c-1.38-0.49-2.48-0.95-3.29-1.38c-0.81-0.42-1.51-1.03-2.09-1.82
				c-0.59-0.79-0.88-1.79-0.88-3.02c0-1.59,0.64-2.87,1.92-3.85s3-1.46,5.14-1.46C344.62,37.93,346.71,38.41,348.91,39.36z"/>
			<path class="st5" d="M366.66,39.36v3.62c-2.46-1.1-4.41-1.66-5.87-1.66c-0.83,0-1.49,0.14-1.98,0.42
				c-0.49,0.28-0.74,0.65-0.74,1.11c0,0.35,0.18,0.69,0.53,1.01c0.35,0.32,1.21,0.73,2.58,1.23c1.37,0.5,2.46,0.97,3.29,1.4
				c0.82,0.43,1.53,1.04,2.13,1.83c0.6,0.79,0.89,1.78,0.89,2.98c0,1.71-0.65,3.08-1.95,4.1c-1.3,1.02-3.02,1.52-5.15,1.52
				c-2.3,0-4.52-0.6-6.68-1.79v-3.99c1.24,0.83,2.33,1.44,3.29,1.82s1.97,0.57,3.04,0.57c1.81,0,2.72-0.57,2.72-1.71
				c0-0.39-0.18-0.75-0.54-1.1c-0.36-0.34-1.23-0.76-2.62-1.26c-1.38-0.49-2.48-0.95-3.29-1.38c-0.81-0.42-1.51-1.03-2.09-1.82
				c-0.59-0.79-0.88-1.79-0.88-3.02c0-1.59,0.64-2.87,1.92-3.85s3-1.46,5.14-1.46C362.38,37.93,364.47,38.41,366.66,39.36z"/>
			<path class="st5" d="M381.67,37.93c3.15,0,5.71,0.95,7.66,2.86c1.95,1.9,2.93,4.12,2.93,6.65c0,2.56-0.99,4.78-2.97,6.67
				c-1.98,1.88-4.52,2.82-7.62,2.82c-3.14,0-5.69-0.94-7.66-2.81c-1.97-1.87-2.96-4.1-2.96-6.68c0-2.54,0.98-4.75,2.94-6.65
				C375.95,38.88,378.51,37.93,381.67,37.93z M381.67,53.08c1.75,0,3.16-0.52,4.23-1.56c1.07-1.04,1.6-2.4,1.6-4.09
				c0-1.7-0.54-3.06-1.6-4.1c-1.07-1.03-2.48-1.55-4.23-1.55c-1.76,0-3.17,0.52-4.25,1.55c-1.07,1.03-1.61,2.4-1.61,4.1
				c0,1.69,0.54,3.05,1.61,4.09C378.5,52.56,379.91,53.08,381.67,53.08z"/>
			<path class="st5" d="M414.21,51.04v4.04c-2.32,1.23-4.74,1.84-7.28,1.84c-3.29,0-5.9-0.91-7.85-2.72
				c-1.95-1.82-2.92-4.05-2.92-6.71c0-2.66,1.03-4.92,3.08-6.77c2.05-1.86,4.74-2.78,8.05-2.78c2.64,0,4.88,0.54,6.71,1.63v4.12
				c-2.24-1.26-4.37-1.9-6.37-1.9c-1.97,0-3.58,0.53-4.83,1.58s-1.88,2.4-1.88,4.04c0,1.64,0.62,3,1.85,4.07
				c1.23,1.07,2.81,1.6,4.74,1.6c0.95,0,1.87-0.13,2.76-0.38C411.15,52.45,412.46,51.89,414.21,51.04z"/>
			<path class="st5" d="M424.01,38.17v18.51h-4.61V38.17H424.01z"/>
			<path class="st5" d="M440.47,38.17l8.22,18.51h-4.96l-1.53-3.66h-8.29l-1.38,3.66h-4.89l7.48-18.51H440.47z M440.86,49.79l-3-7.2
				l-2.72,7.2H440.86z"/>
			<path class="st5" d="M468.9,38.17v3.39h-6.71v15.12h-4.61V41.56h-6.71v-3.39H468.9z"/>
			<path class="st5" d="M486.77,53.29v3.39h-13.65V38.17h13.47v3.39h-8.85v3.88h8.44v3.39h-8.44v4.45H486.77z"/>
			<path class="st5" d="M504.21,39.36v3.62c-2.46-1.1-4.41-1.66-5.87-1.66c-0.83,0-1.49,0.14-1.98,0.42
				c-0.49,0.28-0.74,0.65-0.74,1.11c0,0.35,0.18,0.69,0.53,1.01c0.35,0.32,1.21,0.73,2.58,1.23c1.37,0.5,2.46,0.97,3.29,1.4
				c0.82,0.43,1.53,1.04,2.13,1.83c0.6,0.79,0.89,1.78,0.89,2.98c0,1.71-0.65,3.08-1.95,4.1c-1.3,1.02-3.02,1.52-5.15,1.52
				c-2.3,0-4.52-0.6-6.68-1.79v-3.99c1.24,0.83,2.33,1.44,3.29,1.82s1.97,0.57,3.04,0.57c1.81,0,2.72-0.57,2.72-1.71
				c0-0.39-0.18-0.75-0.54-1.1c-0.36-0.34-1.23-0.76-2.62-1.26c-1.38-0.49-2.48-0.95-3.29-1.38c-0.81-0.42-1.51-1.03-2.09-1.82
				c-0.59-0.79-0.88-1.79-0.88-3.02c0-1.59,0.64-2.87,1.92-3.85s3-1.46,5.14-1.46C499.93,37.93,502.02,38.41,504.21,39.36z"/>
			<path class="st5" d="M160.08,77.5l-1.67,4.7h-2.41l5.78-16.38h3.01l6.03,16.38h-2.58l-1.73-4.7H160.08z M165.91,75.44
				c-1.49-4.15-2.32-6.42-2.68-7.71h-0.02c-0.4,1.43-1.33,4.17-2.53,7.71H165.91z"/>
			<path class="st5" d="M187.87,64.9v13.92c0,1.12,0,2.23,0.02,3.38h-2.23c-0.06-0.33-0.1-1.19-0.11-1.62
				c-0.59,1.19-1.77,1.9-3.71,1.9c-3.08,0-4.98-2.49-4.98-6.17c0-3.7,2.05-6.41,5.38-6.41c2.05,0,2.99,0.81,3.3,1.46V64.9H187.87z
				 M179.26,76.25c0,2.79,1.29,4.3,3.12,4.3c2.71,0,3.26-2.04,3.26-4.5c0-2.55-0.51-4.21-3.11-4.21
				C180.49,71.84,179.26,73.46,179.26,76.25z"/>
			<path class="st5" d="M197.03,70.19c1.52,4.75,2.66,8.4,3,9.88h0.02c0.3-1.46,1.56-5.06,3.21-9.88h2.34l-4.38,12.01h-2.52
				l-4.17-12.01H197.03z"/>
			<path class="st5" d="M222.79,76.17c0,3.49-2.02,6.31-5.72,6.31c-3.5,0-5.59-2.66-5.59-6.27c0-3.58,2.08-6.31,5.73-6.31
				C220.58,69.91,222.79,72.4,222.79,76.17z M213.85,76.2c0,2.57,1.25,4.39,3.3,4.39c2.09,0,3.26-1.74,3.26-4.38
				c0-2.67-1.17-4.4-3.31-4.4C215,71.81,213.85,73.49,213.85,76.2z"/>
			<path class="st5" d="M239.76,78.49c-0.49,2.05-1.89,4-5.05,4c-3.39,0-5.41-2.42-5.41-6.22c0-3.42,1.97-6.36,5.56-6.36
				c3.58,0,4.76,2.55,4.9,4.06h-2.29c-0.28-1.18-1-2.16-2.66-2.16c-2.01,0-3.14,1.73-3.14,4.38c0,2.7,1.12,4.41,3.08,4.41
				c1.43,0,2.26-0.78,2.71-2.11H239.76z"/>
			<path class="st5" d="M256.04,79.49c0,1.1,0.09,2.38,0.17,2.71h-2.22c-0.09-0.26-0.17-0.84-0.19-1.5
				c-0.42,0.78-1.35,1.78-3.64,1.78c-2.84,0-4.06-1.86-4.06-3.69c0-2.69,2.12-3.92,5.68-3.92c0.79,0,1.54,0,1.98,0V73.9
				c0-1.02-0.33-2.22-2.44-2.22c-1.89,0-2.22,0.92-2.43,1.84h-2.23c0.16-1.75,1.24-3.63,4.74-3.61c2.99,0.01,4.64,1.22,4.64,3.97
				V79.49z M253.78,76.42c-0.36,0-1.22,0-1.83,0c-2.32,0-3.5,0.65-3.5,2.24c0,1.17,0.79,2.05,2.22,2.05c2.74,0,3.11-1.86,3.11-3.92
				V76.42z"/>
			<path class="st5" d="M262.74,70.19h2.03V66.7h2.32v3.49h2.59v1.85h-2.59v6.82c0,1.12,0.28,1.67,1.35,1.67
				c0.27,0,0.68-0.01,0.99-0.09v1.7c-0.54,0.2-1.29,0.22-1.88,0.22c-1.96,0-2.78-1.02-2.78-3.04v-7.29h-2.03V70.19z"/>
			<path class="st5" d="M278.15,76.64c0.01,2.26,1.15,3.94,3.11,3.94c1.8,0,2.37-0.9,2.74-1.75h2.33c-0.46,1.52-1.76,3.65-5.14,3.65
				c-3.81,0-5.38-3.05-5.38-6.15c0-3.61,1.83-6.43,5.52-6.43c3.92,0,5.22,3.08,5.22,5.73c0,0.37,0,0.67-0.03,1H278.15z M284.2,75.06
				c-0.02-1.86-0.93-3.37-2.9-3.37c-2.01,0-2.88,1.4-3.08,3.37H284.2z"/>
			<path class="st5" d="M295.11,78.73c0.33,1.24,1.26,1.97,2.81,1.97c1.66,0,2.31-0.7,2.31-1.72c0-1.06-0.54-1.53-2.73-2.06
				c-3.53-0.86-4.23-1.94-4.23-3.58c0-1.71,1.25-3.43,4.44-3.43c3.2,0,4.46,1.83,4.61,3.5h-2.23c-0.16-0.71-0.69-1.75-2.48-1.75
				c-1.57,0-2.04,0.75-2.04,1.49c0,0.84,0.47,1.25,2.62,1.77c3.71,0.88,4.41,2.12,4.41,3.9c0,2.08-1.64,3.67-4.76,3.67
				c-3.21,0-4.74-1.61-5.03-3.75H295.11z"/>
			<path class="st5" d="M335.4,71.85l-4.22,6.1c-1.94,2.81-3.32,4.48-6.44,4.48c-3.18,0-4.78-2.23-4.78-4.37
				c0-2.19,1.26-3.63,4.45-5.26c2.02-1.05,3.29-1.85,3.29-3.38c0-1.08-0.64-2.11-1.96-2.11c-1.21,0-2.02,0.8-2.02,2.18
				c0,1.02,0.77,1.9,1.94,3.01l9.89,9.7h-3.1l-8.76-8.62c-1.25-1.22-2.16-2.38-2.16-3.96c0-2.17,1.54-4.04,4.21-4.04
				c2.52,0,4.07,1.75,4.07,3.8c0,1.88-1.26,3.04-4.19,4.62c-2.69,1.35-3.28,2.51-3.28,3.81c0,1.38,1.07,2.6,2.59,2.6
				c1.81,0,2.79-0.78,4.84-3.81l3.18-4.75H335.4z"/>
			<path class="st5" d="M355.29,77.59c0.43,1.9,1.74,2.9,4.03,2.9c2.43,0,3.4-1.11,3.4-2.59c0-1.58-0.8-2.44-4-3.21
				c-3.97-0.96-5.27-2.34-5.27-4.62c0-2.51,1.86-4.49,5.56-4.49c3.99,0,5.62,2.27,5.84,4.47h-2.47c-0.27-1.37-1.12-2.55-3.45-2.55
				c-1.89,0-2.96,0.84-2.96,2.33c0,1.46,0.88,2.04,3.71,2.72c4.69,1.13,5.56,2.94,5.56,5.09c0,2.71-2.02,4.78-6.08,4.78
				c-4.13,0-5.98-2.21-6.33-4.82H355.29z"/>
			<path class="st5" d="M383.24,76.17c0,3.49-2.02,6.31-5.72,6.31c-3.5,0-5.59-2.66-5.59-6.27c0-3.58,2.08-6.31,5.73-6.31
				C381.04,69.91,383.24,72.4,383.24,76.17z M374.31,76.2c0,2.57,1.25,4.39,3.3,4.39c2.09,0,3.26-1.74,3.26-4.38
				c0-2.67-1.17-4.4-3.31-4.4C375.45,71.81,374.31,73.49,374.31,76.2z"/>
			<path class="st5" d="M390.56,82.2V64.9h2.32v17.3H390.56z"/>
			<path class="st5" d="M401.03,64.9h2.32v2.66h-2.32V64.9z M401.03,70.19h2.32V82.2h-2.32V70.19z"/>
			<path class="st5" d="M421.16,78.49c-0.49,2.05-1.89,4-5.05,4c-3.39,0-5.41-2.42-5.41-6.22c0-3.42,1.97-6.36,5.56-6.36
				c3.58,0,4.76,2.55,4.9,4.06h-2.29c-0.28-1.18-1-2.16-2.66-2.16c-2.01,0-3.14,1.73-3.14,4.38c0,2.7,1.12,4.41,3.08,4.41
				c1.43,0,2.26-0.78,2.71-2.11H421.16z"/>
			<path class="st5" d="M428.29,64.9h2.32v2.66h-2.32V64.9z M428.29,70.19h2.32V82.2h-2.32V70.19z"/>
			<path class="st5" d="M437.3,70.19h2.03V66.7h2.32v3.49h2.59v1.85h-2.59v6.82c0,1.12,0.28,1.67,1.35,1.67
				c0.27,0,0.68-0.01,0.99-0.09v1.7c-0.54,0.2-1.29,0.22-1.88,0.22c-1.96,0-2.78-1.02-2.78-3.04v-7.29h-2.03V70.19z"/>
			<path class="st5" d="M461.68,76.17c0,3.49-2.02,6.31-5.72,6.31c-3.5,0-5.59-2.66-5.59-6.27c0-3.58,2.08-6.31,5.73-6.31
				C459.48,69.91,461.68,72.4,461.68,76.17z M452.74,76.2c0,2.57,1.25,4.39,3.3,4.39c2.09,0,3.26-1.74,3.26-4.38
				c0-2.67-1.17-4.4-3.31-4.4C453.89,71.81,452.74,73.49,452.74,76.2z"/>
			<path class="st5" d="M469,73.45c0-1.58-0.01-2.55-0.02-3.26h2.27c0.04,0.32,0.07,1.31,0.07,2.38c0.61-1.58,2.01-2.62,4.01-2.67
				v2.28c-2.45,0.05-4.01,1.21-4.01,4.3v5.71H469V73.45z"/>
			<path class="st5" d="M483.49,78.73c0.33,1.24,1.26,1.97,2.81,1.97c1.66,0,2.31-0.7,2.31-1.72c0-1.06-0.54-1.53-2.73-2.06
				c-3.53-0.86-4.23-1.94-4.23-3.58c0-1.71,1.25-3.43,4.44-3.43c3.2,0,4.46,1.83,4.61,3.5h-2.23c-0.16-0.71-0.69-1.75-2.48-1.75
				c-1.57,0-2.04,0.75-2.04,1.49c0,0.84,0.47,1.25,2.62,1.77c3.71,0.88,4.41,2.12,4.41,3.9c0,2.08-1.64,3.67-4.76,3.67
				c-3.21,0-4.74-1.61-5.03-3.75H483.49z"/>
		</g>
	</g>
</g>
</svg>
