<svg id="Layer_1" data-name="Layer 1" xmlns="http://www.w3.org/2000/svg" xmlns:xlink="http://www.w3.org/1999/xlink" viewBox="0 0 503.53 120"><defs><style>.cls-1{fill:none;}.cls-2{fill:#fff;}.cls-3{fill:#ab1e23;}.cls-4{clip-path:url(#clip-path);}.cls-5{fill:#ec2024;}</style><clipPath id="clip-path"><path class="cls-1" d="M116.23,37.24S105,27.74,101,25.36c-1.38-.82-1-1.15-6.81-1.15H80.27L59.93,61.14h62.85s7.46-.1,12.1,8.74,14.56,26.37,14.56,26.37l-19.5-11.19a2.29,2.29,0,0,0-1.17-.32L47.64,85l-19,34.85H0L60.38,9.55S64.33.32,72.57.17s12.27,0,16.81,0c5.18,0,8.72,1.63,13.85,10.57S116.23,37.24,116.23,37.24Z"/></clipPath></defs><path class="cls-2" d="M168.7,37.63v3.31h-7.93v4h7.93v3.3h-7.93v7.41h-4.5v-18Z"/><path class="cls-2" d="M182.54,37.63l8,18h-4.83l-1.49-3.57h-8.08l-1.35,3.57h-4.76l7.29-18ZM182.93,49l-2.93-7-2.65,7Z"/><path class="cls-2" d="M194,37.63H202a6,6,0,0,1,4.26,1.52,4.82,4.82,0,0,1,1.64,3.67,4.65,4.65,0,0,1-3.1,4.41q1.36.63,2.58,3.33t2.37,5.12h-4.94c-.29-.6-.8-1.73-1.54-3.4a10.38,10.38,0,0,0-1.88-3.22,2.45,2.45,0,0,0-1.67-.71h-1.29v7.33H194Zm4.5,3.31V45h2.38a2.78,2.78,0,0,0,1.8-.53A1.86,1.86,0,0,0,203.3,43c0-1.36-.85-2-2.57-2Z"/><path class="cls-2" d="M231.2,37.63v18h-4.49v-7.3h-9v7.3h-4.49v-18h4.49v7.25h9V37.63Z"/><path class="cls-2" d="M247.12,37.63l8,18H250.3l-1.49-3.57h-8.08l-1.35,3.57h-4.76l7.29-18ZM247.5,49l-2.93-7-2.65,7Z"/><path class="cls-2" d="M276.81,37.63v18H273l-10-11.57V55.68h-4.5v-18h4.12l9.64,11v-11Z"/><path class="cls-2" d="M304.2,46.31h3.86a14.74,14.74,0,0,1-3.63,5.4l3.63,4h-5.48l-1.31-1.44a10.4,10.4,0,0,1-5.68,1.67,6.2,6.2,0,0,1-4.08-1.36,4.27,4.27,0,0,1-1.63-3.4q0-3,4.05-5.1a7,7,0,0,1-1.64-4,4.18,4.18,0,0,1,1.56-3.33,5.93,5.93,0,0,1,4-1.32,5.75,5.75,0,0,1,3.76,1.2A3.86,3.86,0,0,1,303,41.69q0,2.63-3.36,4.62l2.45,2.83A12.1,12.1,0,0,0,304.2,46.31Zm-5,5.61L296,48.38c-1.23.79-1.85,1.6-1.85,2.43a2,2,0,0,0,.67,1.49,2.27,2.27,0,0,0,1.61.62A5,5,0,0,0,299.17,51.92Zm-1.46-7.75q1.8-1.05,1.8-2.28a1.39,1.39,0,0,0-.47-1.08,1.68,1.68,0,0,0-1.2-.43,1.79,1.79,0,0,0-1.19.39,1.24,1.24,0,0,0-.47,1A3.69,3.69,0,0,0,297.71,44.17Z"/><path class="cls-2" d="M328.62,37.63l8,18H331.8l-1.49-3.57h-8.08l-1.35,3.57h-4.76l7.29-18ZM329,49l-2.93-7-2.65,7Z"/><path class="cls-2" d="M352.28,38.79v3.53a15,15,0,0,0-5.72-1.62,3.92,3.92,0,0,0-1.93.41,1.21,1.21,0,0,0-.72,1.08,1.35,1.35,0,0,0,.52,1,9.09,9.09,0,0,0,2.52,1.2,27.68,27.68,0,0,1,3.2,1.37,6.3,6.3,0,0,1,2.08,1.78,4.7,4.7,0,0,1,.87,2.91,4.8,4.8,0,0,1-1.91,4,7.93,7.93,0,0,1-5,1.49,13.2,13.2,0,0,1-6.51-1.75V50.28a17.8,17.8,0,0,0,3.21,1.77,7.9,7.9,0,0,0,3,.55c1.76,0,2.64-.55,2.64-1.66a1.47,1.47,0,0,0-.53-1.08,8.46,8.46,0,0,0-2.55-1.22,24.46,24.46,0,0,1-3.2-1.35,5.92,5.92,0,0,1-2-1.77,4.77,4.77,0,0,1-.86-2.94,4.51,4.51,0,0,1,1.87-3.76,8.08,8.08,0,0,1,5-1.42A15.34,15.34,0,0,1,352.28,38.79Z"/><path class="cls-2" d="M369.59,38.79v3.53a15,15,0,0,0-5.73-1.62,3.92,3.92,0,0,0-1.93.41,1.22,1.22,0,0,0-.71,1.08,1.34,1.34,0,0,0,.51,1,9.42,9.42,0,0,0,2.52,1.2,27.19,27.19,0,0,1,3.21,1.37,6.27,6.27,0,0,1,2.07,1.78,4.7,4.7,0,0,1,.87,2.91,4.79,4.79,0,0,1-1.9,4,8,8,0,0,1-5,1.49A13.2,13.2,0,0,1,357,54.16V50.28a17.43,17.43,0,0,0,3.2,1.77,7.94,7.94,0,0,0,3,.55c1.76,0,2.65-.55,2.65-1.66a1.51,1.51,0,0,0-.53-1.08,8.7,8.7,0,0,0-2.56-1.22,25.07,25.07,0,0,1-3.2-1.35,5.92,5.92,0,0,1-2-1.77,4.77,4.77,0,0,1-.86-2.94,4.54,4.54,0,0,1,1.87-3.76,8.09,8.09,0,0,1,5-1.42A15.38,15.38,0,0,1,369.59,38.79Z"/><path class="cls-2" d="M384.22,37.4a10.21,10.21,0,0,1,7.46,2.78,8.76,8.76,0,0,1,0,13,11.48,11.48,0,0,1-14.9,0,8.8,8.8,0,0,1,0-13A10.3,10.3,0,0,1,384.22,37.4Zm0,14.76a5.63,5.63,0,0,0,4.12-1.52,5.87,5.87,0,0,0,0-8,6.4,6.4,0,0,0-8.26,0,5.84,5.84,0,0,0,0,8A5.65,5.65,0,0,0,384.22,52.16Z"/><path class="cls-2" d="M415.94,50.17v3.94a14.92,14.92,0,0,1-7.1,1.8,10.78,10.78,0,0,1-7.65-2.66,8.83,8.83,0,0,1,.16-13.14,11.23,11.23,0,0,1,7.84-2.71A12.57,12.57,0,0,1,415.73,39v4a12.74,12.74,0,0,0-6.21-1.84,7,7,0,0,0-4.71,1.54A4.92,4.92,0,0,0,403,46.63a5,5,0,0,0,1.8,4,6.8,6.8,0,0,0,4.62,1.56,9.6,9.6,0,0,0,2.69-.37A25.21,25.21,0,0,0,415.94,50.17Z"/><path class="cls-2" d="M425.49,37.63v18H421v-18Z"/><path class="cls-2" d="M441.53,37.63l8,18h-4.84l-1.48-3.57h-8.08l-1.35,3.57H429l7.29-18ZM441.91,49l-2.92-7-2.65,7Z"/><path class="cls-2" d="M466.06,37.63v3.31h-6.53V55.68H455V40.94H448.5V37.63Z"/><path class="cls-2" d="M483.48,52.37v3.31h-13.3v-18H483.3v3.31h-8.63v3.78h8.23V48h-8.23v4.34Z"/><path class="cls-2" d="M500.49,38.79v3.53a15,15,0,0,0-5.72-1.62,4,4,0,0,0-1.94.41,1.22,1.22,0,0,0-.71,1.08,1.34,1.34,0,0,0,.51,1,9.42,9.42,0,0,0,2.52,1.2,27.19,27.19,0,0,1,3.21,1.37,6.27,6.27,0,0,1,2.07,1.78,4.7,4.7,0,0,1,.87,2.91,4.79,4.79,0,0,1-1.9,4,7.93,7.93,0,0,1-5,1.49,13.2,13.2,0,0,1-6.51-1.75V50.28a17.43,17.43,0,0,0,3.2,1.77,7.94,7.94,0,0,0,3,.55c1.77,0,2.65-.55,2.65-1.66a1.51,1.51,0,0,0-.53-1.08,8.73,8.73,0,0,0-2.55-1.22,24.68,24.68,0,0,1-3.21-1.35,6,6,0,0,1-2-1.77,4.77,4.77,0,0,1-.86-2.94,4.52,4.52,0,0,1,1.88-3.76,8.08,8.08,0,0,1,5-1.42A15.34,15.34,0,0,1,500.49,38.79Z"/><path class="cls-2" d="M168.67,76,167,80.55h-2.35l5.64-16h2.93l5.88,16h-2.51L174.94,76Zm5.69-2c-1.45-4-2.26-6.25-2.61-7.51h0c-.39,1.39-1.3,4.06-2.47,7.51Z"/><path class="cls-2" d="M195.74,63.69V77.26c0,1.09,0,2.17,0,3.29h-2.17c-.05-.32-.1-1.16-.11-1.57-.57,1.16-1.72,1.85-3.61,1.85-3,0-4.86-2.43-4.86-6s2-6.25,5.25-6.25c2,0,2.92.79,3.22,1.42v-6.3Zm-8.39,11.06c0,2.72,1.26,4.19,3.05,4.19,2.64,0,3.17-2,3.17-4.38s-.49-4.1-3-4.1C188.55,70.46,187.35,72,187.35,74.75Z"/><path class="cls-2" d="M204.76,68.85c1.49,4.62,2.6,8.18,2.93,9.63h0c.3-1.43,1.52-4.94,3.14-9.63h2.28l-4.27,11.7H206.4l-4.06-11.7Z"/><path class="cls-2" d="M229.75,74.68c0,3.4-2,6.15-5.57,6.15-3.41,0-5.45-2.6-5.45-6.11s2-6.15,5.59-6.15C227.61,68.57,229.75,71,229.75,74.68Zm-8.71,0c0,2.51,1.22,4.27,3.22,4.27s3.18-1.69,3.18-4.26-1.14-4.29-3.22-4.29S221,72.06,221,74.7Z"/><path class="cls-2" d="M246.44,76.93a4.7,4.7,0,0,1-4.92,3.9c-3.3,0-5.28-2.36-5.28-6.06,0-3.34,1.92-6.2,5.43-6.2a4.42,4.42,0,0,1,4.77,4h-2.23a2.46,2.46,0,0,0-2.59-2.11c-2,0-3.06,1.69-3.06,4.27s1.09,4.29,3,4.29a2.61,2.61,0,0,0,2.64-2Z"/><path class="cls-2" d="M262.35,77.91a19.36,19.36,0,0,0,.16,2.64h-2.16a6,6,0,0,1-.18-1.46c-.41.76-1.32,1.74-3.55,1.74-2.78,0-4-1.81-4-3.6,0-2.62,2.07-3.82,5.54-3.82h1.94v-1c0-1-.33-2.16-2.39-2.16-1.84,0-2.16.89-2.36,1.79h-2.18c.16-1.7,1.22-3.53,4.62-3.52,2.91,0,4.52,1.19,4.52,3.87Zm-2.2-3h-1.78c-2.26,0-3.41.63-3.41,2.18a2,2,0,0,0,2.16,2c2.67,0,3-1.81,3-3.82Z"/><path class="cls-2" d="M268.7,68.85h2v-3.4h2.26v3.4h2.52v1.8h-2.52v6.64c0,1.09.27,1.63,1.31,1.63a4.81,4.81,0,0,0,1-.08V80.5a5.89,5.89,0,0,1-1.83.21c-1.92,0-2.71-1-2.71-3v-7.1h-2Z"/><path class="cls-2" d="M283.54,75.13c0,2.2,1.12,3.84,3,3.84a2.54,2.54,0,0,0,2.68-1.7h2.27a4.84,4.84,0,0,1-5,3.56c-3.71,0-5.24-3-5.24-6,0-3.52,1.77-6.26,5.37-6.26,3.83,0,5.09,3,5.09,5.59a7.55,7.55,0,0,1,0,1Zm5.9-1.54c0-1.81-.91-3.28-2.83-3.28s-2.82,1.36-3,3.28Z"/><path class="cls-2" d="M300.23,77.17A2.54,2.54,0,0,0,303,79.09c1.61,0,2.24-.68,2.24-1.68s-.53-1.49-2.65-2c-3.44-.84-4.12-1.89-4.12-3.49s1.21-3.34,4.32-3.34,4.36,1.78,4.5,3.41h-2.18a2.16,2.16,0,0,0-2.42-1.7c-1.53,0-2,.72-2,1.44s.46,1.22,2.56,1.72c3.62.86,4.3,2.07,4.3,3.81,0,2-1.6,3.58-4.64,3.58s-4.62-1.57-4.91-3.66Z"/><path class="cls-2" d="M339.51,70.46l-4.12,6c-1.89,2.74-3.23,4.37-6.28,4.37a4.31,4.31,0,0,1-4.66-4.26c0-2.13,1.23-3.54,4.34-5.13,2-1,3.21-1.81,3.21-3.3a1.94,1.94,0,1,0-3.87.07c0,1,.75,1.86,1.89,2.94l9.65,9.45h-3l-8.53-8.4C326.89,71,326,69.84,326,68.29a3.86,3.86,0,0,1,4.11-3.94,3.71,3.71,0,0,1,4,3.71c0,1.83-1.23,3-4.09,4.5-2.63,1.32-3.2,2.44-3.2,3.71a2.51,2.51,0,0,0,2.52,2.54c1.77,0,2.72-.76,4.72-3.72l3.1-4.63Z"/><path class="cls-2" d="M358.9,76.06c.42,1.86,1.7,2.83,3.92,2.83,2.37,0,3.32-1.09,3.32-2.53s-.78-2.38-3.9-3.13c-3.87-.93-5.13-2.28-5.13-4.5,0-2.45,1.81-4.38,5.41-4.38,3.89,0,5.48,2.21,5.7,4.36h-2.41c-.26-1.34-1.09-2.49-3.36-2.49-1.85,0-2.89.82-2.89,2.27s.86,2,3.61,2.65c4.58,1.11,5.42,2.87,5.42,5,0,2.64-2,4.66-5.93,4.66s-5.83-2.16-6.17-4.7Z"/><path class="cls-2" d="M386.23,74.68c0,3.4-2,6.15-5.57,6.15-3.41,0-5.45-2.6-5.45-6.11s2-6.15,5.59-6.15C384.08,68.57,386.23,71,386.23,74.68Zm-8.71,0c0,2.51,1.22,4.27,3.22,4.27s3.18-1.69,3.18-4.26-1.14-4.29-3.22-4.29S377.52,72.06,377.52,74.7Z"/><path class="cls-2" d="M393.37,80.55V63.69h2.25V80.55Z"/><path class="cls-2" d="M403.57,63.69h2.26v2.59h-2.26Zm0,5.16h2.26v11.7h-2.26Z"/><path class="cls-2" d="M423.19,76.93a4.7,4.7,0,0,1-4.92,3.9c-3.3,0-5.27-2.36-5.27-6.06,0-3.34,1.91-6.2,5.42-6.2a4.42,4.42,0,0,1,4.77,4H421a2.45,2.45,0,0,0-2.58-2.11c-2,0-3.07,1.69-3.07,4.27s1.09,4.29,3,4.29a2.61,2.61,0,0,0,2.64-2Z"/><path class="cls-2" d="M430.31,63.69h2.25v2.59h-2.25Zm0,5.16h2.25v11.7h-2.25Z"/><path class="cls-2" d="M439.17,68.85h2v-3.4h2.25v3.4h2.53v1.8h-2.53v6.64c0,1.09.28,1.63,1.32,1.63a4.81,4.81,0,0,0,1-.08V80.5a5.92,5.92,0,0,1-1.84.21c-1.91,0-2.7-1-2.7-3v-7.1h-2Z"/><path class="cls-2" d="M462.76,74.68c0,3.4-2,6.15-5.58,6.15-3.4,0-5.45-2.6-5.45-6.11s2-6.15,5.59-6.15C460.61,68.57,462.76,71,462.76,74.68Zm-8.71,0c0,2.51,1.22,4.27,3.22,4.27s3.17-1.69,3.17-4.26-1.14-4.29-3.22-4.29S454.05,72.06,454.05,74.7Z"/><path class="cls-2" d="M469.89,72c0-1.54,0-2.48,0-3.17h2.21c0,.31.07,1.28.07,2.32a4.05,4.05,0,0,1,3.91-2.6v2.22c-2.4,0-3.91,1.18-3.91,4.19v5.57h-2.26Z"/><path class="cls-2" d="M484.06,77.17a2.54,2.54,0,0,0,2.75,1.92c1.61,0,2.24-.68,2.24-1.68s-.53-1.49-2.65-2c-3.44-.84-4.12-1.89-4.12-3.49s1.21-3.34,4.32-3.34S491,70.35,491.1,72h-2.18a2.15,2.15,0,0,0-2.41-1.7c-1.53,0-2,.72-2,1.44s.45,1.22,2.55,1.72c3.62.86,4.3,2.07,4.3,3.81,0,2-1.6,3.58-4.64,3.58s-4.61-1.57-4.9-3.66Z"/><path class="cls-3" d="M116.23,37.24S105,27.74,101,25.36c-1.38-.82-1-1.15-6.81-1.15H80.27L59.93,61.14h62.85s7.46-.1,12.1,8.74,14.56,26.37,14.56,26.37l-19.5-11.19a2.29,2.29,0,0,0-1.17-.32L47.64,85l-19,34.85H0L60.38,9.55S64.33.32,72.57.17s12.27,0,16.81,0c5.18,0,8.72,1.63,13.85,10.57S116.23,37.24,116.23,37.24Z"/><g class="cls-4"><path class="cls-5" d="M82.8-9.24l66.64,134.42s41.37-20.5,42.16-24.44-72.93-149-72.93-149Z"/></g></svg>