<svg id="finaxo" xmlns="http://www.w3.org/2000/svg" width="160" height="60" viewBox="0 0 160 70">
  <defs>
    <style>
      .cls-1 {
        fill: #291843;
      }

      .cls-1, .cls-2 {
        fill-rule: evenodd;
      }

      .cls-2 {
        fill: #30b666;
      }
    </style>
  </defs>
  <path id="finaxo." class="cls-1" d="M68.723,18.933a3.581,3.581,0,0,1,2.068.66l1.049-2.82a6.87,6.87,0,0,0-7.613.615,5.464,5.464,0,0,0-1.5,4.065v1.02H60.091v3h2.637v12.9h3.746v-12.9h4.286v-3H66.355v-0.96q0-2.58,2.368-2.58h0Zm6.952,19.44h3.746V22.353H75.675v16.02Zm1.888-18.66a2.333,2.333,0,0,0,1.723-.675,2.263,2.263,0,0,0,.674-1.665,1.984,1.984,0,0,0-.689-1.545,2.475,2.475,0,0,0-1.708-.615,2.4,2.4,0,0,0-1.708.645,2.213,2.213,0,0,0,0,3.21,2.4,2.4,0,0,0,1.708.645h0Zm15.854,2.46a8.409,8.409,0,0,0-3.177.57,5.858,5.858,0,0,0-2.338,1.68v-2.07H84.336v16.02h3.746v-8.1a4.966,4.966,0,0,1,1.2-3.585,4.323,4.323,0,0,1,3.267-1.245,3.656,3.656,0,0,1,2.817,1.065,4.5,4.5,0,0,1,.989,3.165v8.7H100.1v-9.18a6.988,6.988,0,0,0-1.829-5.25,6.685,6.685,0,0,0-4.855-1.77h0Zm17.563,0a13.455,13.455,0,0,0-3.746.51,9.1,9.1,0,0,0-3.027,1.47l1.468,2.73a6.532,6.532,0,0,1,2.2-1.17,8.6,8.6,0,0,1,2.652-.42,4.344,4.344,0,0,1,2.983.9,3.286,3.286,0,0,1,1,2.58v0.24h-4.136q-3.447,0-5.05,1.3a4.241,4.241,0,0,0-1.6,3.465,4.345,4.345,0,0,0,.734,2.475,4.863,4.863,0,0,0,2.083,1.71,7.524,7.524,0,0,0,3.147.615,7.669,7.669,0,0,0,3.072-.555,4.36,4.36,0,0,0,1.963-1.6v1.95h3.537v-9.39a6.558,6.558,0,0,0-1.873-5.115,7.8,7.8,0,0,0-5.41-1.7h0Zm-0.509,13.68a3.7,3.7,0,0,1-2.248-.6,1.911,1.911,0,0,1-.81-1.62q0-2.13,3.237-2.13h3.867v1.86a3.511,3.511,0,0,1-1.544,1.845,4.833,4.833,0,0,1-2.5.645h0Zm27,2.52-6.264-8.19,5.994-7.83h-4.046l-3.926,5.25-3.926-5.25H121.14l5.964,7.89-6.234,8.13h4.136l4.136-5.55,4.106,5.55h4.226Zm9.411,0.21a9.136,9.136,0,0,0,4.406-1.05,7.658,7.658,0,0,0,3.042-2.925,8.754,8.754,0,0,0,0-8.475,7.7,7.7,0,0,0-3.042-2.91,9.706,9.706,0,0,0-8.782,0,7.683,7.683,0,0,0-3.042,2.91,8.754,8.754,0,0,0,0,8.475,7.646,7.646,0,0,0,3.042,2.925,9.073,9.073,0,0,0,4.376,1.05h0Zm0-3.21a4.525,4.525,0,0,1-3.4-1.38,5,5,0,0,1-1.333-3.63,5,5,0,0,1,1.333-3.63,4.527,4.527,0,0,1,3.4-1.38,4.576,4.576,0,0,1,3.417,1.38,4.972,4.972,0,0,1,1.348,3.63,4.971,4.971,0,0,1-1.348,3.63,4.574,4.574,0,0,1-3.417,1.38h0Zm13.037,3.21a2.432,2.432,0,1,0-1.738-.7,2.395,2.395,0,0,0,1.738.7h0Z" transform="translate(-5.203 4)"/>
  <g id="shape">
    <path class="cls-1" d="M29.269,7.008a7.785,7.785,0,0,0,2.04.222A21.656,21.656,0,0,1,37.032,8.7a0.182,0.182,0,0,1,.174.182,23.285,23.285,0,0,0-3.523.548,17.525,17.525,0,0,0-8.984,5.8,31.716,31.716,0,0,0-5.122,8.492,0.737,0.737,0,0,1-.819.531c-1.428-.029-2.858.021-4.285-0.027a0.679,0.679,0,0,0-.819.64c-0.253,1.072-.543,2.137-0.859,3.193-0.13.434-.02,0.515,0.4,0.509,1.572-.021,3.143-0.008,4.755-0.008l-3.786,14.01a12.382,12.382,0,0,1-2.016-2.255A20.542,20.542,0,0,1,8.03,26.792,20.934,20.934,0,0,1,24.294,7.631a22.6,22.6,0,0,1,3.678-.5c0.112-.005.257,0.05,0.3-0.122h0.994Z" transform="translate(-5.203 4)"/>
    <path class="cls-2" d="M49.984,29.579a11.365,11.365,0,0,0-.472,2.428A20.924,20.924,0,0,1,32.488,48.284a21.621,21.621,0,0,1-4.443.238,1.123,1.123,0,0,0-.925.358C25.168,50.8,23.2,52.7,21.233,54.6a1.206,1.206,0,0,1-.525.4c0.627-2.319,1.246-4.6,1.864-6.89,1.7-6.277,3.4-12.55,5.068-18.836a0.932,0.932,0,0,1,1.118-.827c6.818,0.025,13.637.015,20.455,0.017a1.159,1.159,0,0,1,.771.128v0.984ZM39.324,24.15c-3.222,0-6.443-.012-9.665.012-0.549,0-.586-0.128-0.444-0.613a18.946,18.946,0,0,1,3.533-7.23,9.835,9.835,0,0,1,7.873-3.729,6.5,6.5,0,0,1,5.244,2.935,20.639,20.639,0,0,1,3.643,8.05c0.124,0.565-.071.584-0.52,0.582C45.767,24.144,42.546,24.15,39.324,24.15Z" transform="translate(-5.203 4)"/>
  </g>
</svg>
