<svg id="sitter" xmlns="http://www.w3.org/2000/svg" width="170" height="60" viewBox="0 0 170 60">
  <defs>
    <style>
      .cls-1 {
        fill: #214d63;
      }

      .cls-1, .cls-2 {
        fill-rule: evenodd;
      }

      .cls-2 {
        fill: #fcdb02;
      }
    </style>
  </defs>
  <g>
    <path class="cls-1" d="M57.269,37.861L43.195,23.328c-1.467,1.158-4.727,3.713-6.437,4.9a3.359,3.359,0,0,1-1.925.6,3.578,3.578,0,0,1-3.239-2.037c-0.389-.83-0.779-2.546.979-4.72A70.885,70.885,0,0,1,37.947,16a32.935,32.935,0,0,0-4.015-3.246C29.9,10.01,21.406,10.89,17.168,17.679c-5.485,8.787.827,16.9,3.181,19.315,4.761,4.893,13.466,9.9,17.14,11.492,3.239,1.4,4.623-.435,5.186-1.843-3.062-1.961-9.823-7.277-10.144-7.529a0.309,0.309,0,0,1-.053-0.431,0.3,0.3,0,0,1,.426-0.054c0.081,0.064,7.538,5.926,10.389,7.68,1.034,0.193,3.546.386,4.587-1.915-3.13-2.126-10.354-8.37-10.7-8.665a0.31,0.31,0,0,1-.033-0.433,0.3,0.3,0,0,1,.428-0.034c0.084,0.073,7.706,6.662,10.732,8.687a3.905,3.905,0,0,0,4.106-3.118c-2.991-2.012-10.026-8.25-10.354-8.542a0.311,0.311,0,0,1-.028-0.434,0.3,0.3,0,0,1,.429-0.028c0.081,0.072,7.5,6.651,10.375,8.55a4.255,4.255,0,0,0,4.552-2.431A0.6,0.6,0,0,1,57.269,37.861Z" transform="translate(2.125)"/>
    <path class="cls-2" d="M43.464,22.573c-0.971.767-4.963,3.906-6.9,5.241a2.791,2.791,0,0,1-1.6.493,3,3,0,0,1-2.715-1.7c-0.33-.7-0.651-2.168.908-4.089A48.127,48.127,0,0,1,43.32,12.511,10.013,10.013,0,0,1,48.889,11,13.843,13.843,0,0,1,60.67,17.555c5.45,8.7-.043,17.432-2.4,19.8l-0.219.221Z" transform="translate(2.125)"/>
  </g>
  <path id="Sitter-2" data-name="Sitter" class="cls-1" d="M79.367,39.05a12.294,12.294,0,0,0,4.89-.87,6.754,6.754,0,0,0,3.015-2.355,5.736,5.736,0,0,0,1-3.285,4.828,4.828,0,0,0-1.095-3.33,6.514,6.514,0,0,0-2.625-1.8,34.327,34.327,0,0,0-3.93-1.14,17.628,17.628,0,0,1-3.435-1.035,1.7,1.7,0,0,1-1.125-1.605,2.014,2.014,0,0,1,.975-1.74,5.458,5.458,0,0,1,3.015-.66,11.714,11.714,0,0,1,5.82,1.65l1.5-3.69a11.619,11.619,0,0,0-3.36-1.38,16.16,16.16,0,0,0-3.93-.48,12.183,12.183,0,0,0-4.875.87,6.66,6.66,0,0,0-2.985,2.355,5.846,5.846,0,0,0-.99,3.315,4.94,4.94,0,0,0,1.095,3.36,6.381,6.381,0,0,0,2.625,1.83,34.094,34.094,0,0,0,3.93,1.14q1.56,0.36,2.475.66a4.44,4.44,0,0,1,1.5.8,1.563,1.563,0,0,1,.585,1.245,1.857,1.857,0,0,1-.99,1.635,5.941,5.941,0,0,1-3.06.615,12.046,12.046,0,0,1-3.72-.6,11.188,11.188,0,0,1-3.21-1.59l-1.65,3.66a11.289,11.289,0,0,0,3.735,1.755,17.179,17.179,0,0,0,4.815.675h0Zm11.159-.36h4.68V22.55h-4.68V38.69Zm2.34-18.39a2.934,2.934,0,0,0,2.1-.765,2.547,2.547,0,0,0,.81-1.935,2.309,2.309,0,0,0-.81-1.8,3.043,3.043,0,0,0-2.1-.72,2.969,2.969,0,0,0-2.1.75,2.541,2.541,0,0,0,0,3.72,2.967,2.967,0,0,0,2.1.75h0Zm15.09,14.31a3.006,3.006,0,0,1-1.89.6,1.945,1.945,0,0,1-1.485-.555,2.2,2.2,0,0,1-.525-1.575V26.51h4.02v-3.6h-4.02V18.98h-4.68v3.93h-2.49v3.6h2.49v6.63a5.624,5.624,0,0,0,1.575,4.32,6.282,6.282,0,0,0,4.455,1.47,8.584,8.584,0,0,0,2.115-.255,4.8,4.8,0,0,0,1.695-.765Zm11.94,0a3.006,3.006,0,0,1-1.89.6,1.945,1.945,0,0,1-1.485-.555A2.2,2.2,0,0,1,116,33.08V26.51h4.02v-3.6H116V18.98h-4.68v3.93h-2.49v3.6h2.49v6.63a5.624,5.624,0,0,0,1.575,4.32,6.282,6.282,0,0,0,4.455,1.47,8.584,8.584,0,0,0,2.115-.255,4.8,4.8,0,0,0,1.7-.765Zm18.45-3.93a8.723,8.723,0,0,0-1.095-4.425,7.447,7.447,0,0,0-3.015-2.925,9.567,9.567,0,0,0-8.685.045,7.884,7.884,0,0,0-3.09,2.97,8.249,8.249,0,0,0-1.125,4.275,8.141,8.141,0,0,0,1.14,4.29,7.805,7.805,0,0,0,3.24,2.955,10.533,10.533,0,0,0,4.83,1.065q4.38,0,6.66-2.61l-2.49-2.7a5.41,5.41,0,0,1-1.815,1.185,6.19,6.19,0,0,1-2.235.375,5.165,5.165,0,0,1-3.06-.87,3.8,3.8,0,0,1-1.56-2.37h12.21q0.09-1.17.09-1.26h0Zm-8.37-4.83a3.946,3.946,0,0,1,2.64.915,3.87,3.87,0,0,1,1.32,2.445h-7.95a3.832,3.832,0,0,1,1.32-2.46,4.03,4.03,0,0,1,2.67-.9h0Zm15.21-1.17V22.55h-4.47V38.69h4.68V31.07a4.547,4.547,0,0,1,1.14-3.375,4.29,4.29,0,0,1,3.15-1.125q0.27,0,1.05.06V22.31a8.41,8.41,0,0,0-3.285.6,5.206,5.206,0,0,0-2.265,1.77h0Z" transform="translate(2.125)"/>
</svg>
